<?xml version="1.0" encoding="UTF-8" standalone="no"?>
<svg
   xmlns:dc="http://purl.org/dc/elements/1.1/"
   xmlns:cc="http://creativecommons.org/ns#"
   xmlns:rdf="http://www.w3.org/1999/02/22-rdf-syntax-ns#"
   xmlns:svg="http://www.w3.org/2000/svg"
   xmlns="http://www.w3.org/2000/svg"
   xmlns:xlink="http://www.w3.org/1999/xlink"
   xmlns:sodipodi="http://sodipodi.sourceforge.net/DTD/sodipodi-0.dtd"
   xmlns:inkscape="http://www.inkscape.org/namespaces/inkscape"
   width="40"
   height="40"
   viewBox="0 0 10.583333 10.583334"
   version="1.1"
   id="svg8"
   inkscape:version="1.0.1 (3bc2e813f5, 2020-09-07)"
   sodipodi:docname="flogo.svg">
  <defs
     id="defs2">
    <linearGradient
       inkscape:collect="always"
       id="linearGradient803">
      <stop
         style="stop-color:#008080;stop-opacity:1;"
         offset="0"
         id="stop799" />
      <stop
         style="stop-color:#999999;stop-opacity:1"
         offset="1"
         id="stop801" />
    </linearGradient>
    <linearGradient
       inkscape:collect="always"
       id="linearGradient199">
      <stop
         style="stop-color:#008000;stop-opacity:1;"
         offset="0"
         id="stop195" />
      <stop
         style="stop-color:#008080;stop-opacity:1"
         offset="1"
         id="stop197" />
    </linearGradient>
    <rect
       x="82.577477"
       y="122.61504"
       width="129.28796"
       height="72.012009"
       id="rect129" />
    <linearGradient
       inkscape:collect="always"
       xlink:href="#linearGradient199"
       id="linearGradient193"
       x1="184.83386"
       y1="166.02527"
       x2="124.20824"
       y2="130.04948"
       gradientUnits="userSpaceOnUse" />
    <linearGradient
       inkscape:collect="always"
       xlink:href="#linearGradient803"
       id="linearGradient805"
       x1="5.9803095"
       y1="11.170767"
       x2="6.1018209"
       y2="7.4524417"
       gradientUnits="userSpaceOnUse"
       gradientTransform="matrix(1.2137096,0,0,1.1748743,-4.3366565,-1.9495528)" />
  </defs>
  <sodipodi:namedview
     id="base"
     pagecolor="#ffffff"
     bordercolor="#666666"
     borderopacity="1.0"
     inkscape:pageopacity="0.0"
     inkscape:pageshadow="2"
     inkscape:zoom="6.7620791"
     inkscape:cx="47.128844"
     inkscape:cy="23.653746"
     inkscape:document-units="mm"
     inkscape:current-layer="layer1"
     inkscape:document-rotation="0"
     showgrid="false"
     inkscape:window-width="1366"
     inkscape:window-height="716"
     inkscape:window-x="-8"
     inkscape:window-y="22"
     inkscape:window-maximized="1"
     showguides="true"
     units="px" />
  <metadata
     id="metadata5">
    <rdf:RDF>
      <cc:Work
         rdf:about="">
        <dc:format>image/svg+xml</dc:format>
        <dc:type
           rdf:resource="http://purl.org/dc/dcmitype/StillImage" />
        <dc:title></dc:title>
      </cc:Work>
    </rdf:RDF>
  </metadata>
  <g
     inkscape:label="Layer 1"
     inkscape:groupmode="layer"
     id="layer1">
    <path
       style="fill:url(#linearGradient805);fill-opacity:1;stroke:none;stroke-width:0.166718"
       d="M 4.0717792,7.6378124 H 3.9046796 C 3.4469437,8.4199602 1.4977769,11.528043 0.32944988,10.365033 -0.8388937,9.2020413 2.2834459,7.2617754 3.0691817,6.8061297 0.12206262,2.4969485 6.3384352,-2.4759822 9.6642005,1.65637 12.526516,5.212875 7.5300224,10.967522 4.0717792,7.6378124 M 7.0795719,0.54001563 C 2.2244931,-0.30555804 0.86979993,7.1501635 5.7427752,8.0590431 10.610163,8.9668914 11.987595,1.3948124 7.0795719,0.54001563 m 0,0.69871667 C 11.177177,2.175054 9.61568,8.3599958 5.5756757,7.3827852 1.6522939,6.4337853 3.1934035,0.35072793 7.0795719,1.2387323 M 6.9124724,1.538805 C 3.3521146,0.94128752 2.319506,6.4101322 5.9098748,7.0602586 9.4890718,7.7083557 10.529833,2.1458951 6.9124724,1.538805 M 8.0821702,2.9803889 6.0769745,2.3150428 V 1.9823696 c 0.8993969,0.019179 1.5796922,0.1507176 2.0051957,0.9980193 M 5.408576,2.3150428 4.7401777,2.9803889 5.408576,2.3150428 m 3.5090911,1.829702 V 4.4774179 H 8.2492688 V 4.1447448 h 0.6683983 m -4.3445891,0 V 4.4774179 H 3.9046796 V 4.1447448 H 4.573078 M 8.7505685,5.3091007 8.0821702,4.9764275 8.7505685,5.3091007 M 4.7401777,4.9764275 4.0717792,5.3091007 4.7401777,4.9764275 M 7.9150702,5.4754372 8.2492688,6.1407834 7.5808708,5.6417737 7.9150702,5.4754372 m -2.8406934,0 L 5.2414764,5.6417737 4.573078,6.1407834 5.0743768,5.4754372 M 7.4137712,5.974447 V 6.6397931 L 7.0795719,5.974447 h 0.3341993 m -1.670996,0 L 5.408576,6.6397931 5.7427752,5.974447 m 0.835498,0.1663364 V 6.8061297 H 6.244074 V 6.1407834 H 6.5782732 M 3.0691817,7.1388027 3.5704803,7.6378124 3.4033808,7.1388027 Z"
       id="path781" />
  </g>
</svg>
