<?xml version="1.0" encoding="UTF-8" standalone="no"?>
<svg
   xmlns:dc="http://purl.org/dc/elements/1.1/"
   xmlns:cc="http://creativecommons.org/ns#"
   xmlns:rdf="http://www.w3.org/1999/02/22-rdf-syntax-ns#"
   xmlns:svg="http://www.w3.org/2000/svg"
   xmlns="http://www.w3.org/2000/svg"
   xmlns:sodipodi="http://sodipodi.sourceforge.net/DTD/sodipodi-0.dtd"
   xmlns:inkscape="http://www.inkscape.org/namespaces/inkscape"
   viewBox="0 0 496 512"
   version="1.1"
   id="svg4"
   sodipodi:docname="smile.svg"
   inkscape:version="1.0.1 (3bc2e813f5, 2020-09-07)">
  <metadata
     id="metadata10">
    <rdf:RDF>
      <cc:Work
         rdf:about="">
        <dc:format>image/svg+xml</dc:format>
        <dc:type
           rdf:resource="http://purl.org/dc/dcmitype/StillImage" />
      </cc:Work>
    </rdf:RDF>
  </metadata>
  <defs
     id="defs8" />
  <sodipodi:namedview
     pagecolor="#ffffff"
     bordercolor="#666666"
     borderopacity="1"
     objecttolerance="10"
     gridtolerance="10"
     guidetolerance="10"
     inkscape:pageopacity="0"
     inkscape:pageshadow="2"
     inkscape:window-width="687"
     inkscape:window-height="480"
     id="namedview6"
     showgrid="false"
     inkscape:zoom="0.58414943"
     inkscape:cx="248"
     inkscape:cy="256"
     inkscape:window-x="0"
     inkscape:window-y="30"
     inkscape:window-maximized="0"
     inkscape:current-layer="svg4" />
  <!-- Font Awesome Free 5.15.3 by @fontawesome - https://fontawesome.com License - https://fontawesome.com/license/free (Icons: CC BY 4.0, Fonts: SIL OFL 1.1, Code: MIT License) -->
  <path
     fill="#f5ba16"
     d="M248 8C111 8 0 119 0 256s111 248 248 248 248-111 248-248S385 8 248 8zm80 168c17.7 0 32 14.3 32 32s-14.3 32-32 32-32-14.3-32-32 14.3-32 32-32zm-160 0c17.7 0 32 14.3 32 32s-14.3 32-32 32-32-14.3-32-32 14.3-32 32-32zm194.8 170.2C334.3 380.4 292.5 400 248 400s-86.3-19.6-114.8-53.8c-13.6-16.3 11-36.7 24.6-20.5 22.4 26.9 55.2 42.2 90.2 42.2s67.8-15.4 90.2-42.2c13.4-16.2 38.1 4.2 24.6 20.5z"
     id="path2" />
  <path
     style="opacity:0.996774;fill:#1a1a1a;stroke:#ac0000;stroke-width:1.82458;stroke-opacity:0.0240964"
     d="m 219.7538,396.33777 c -31.18978,-6.40035 -61.0193,-23.11594 -81.09194,-45.44154 -6.08152,-6.76411 -7.92638,-10.14527 -7.92638,-14.52705 0,-7.19948 5.8623,-14.11188 13.15425,-15.51057 4.97093,-0.95348 6.57704,0.0205 18.24555,11.0648 16.57826,15.69137 30.49289,24.56615 47.87395,30.53411 12.78818,4.39095 16.13673,4.81273 37.99077,4.78537 21.82717,-0.0273 25.18746,-0.45879 37.64517,-4.83375 18.20554,-6.3935 30.95474,-14.38487 47.22697,-29.60247 7.41659,-6.93592 14.69579,-12.61077 16.17599,-12.61077 4.24067,0 12.51788,4.84744 14.45375,8.46463 3.73893,6.98627 2.04161,13.10938 -6.16374,22.2357 -14.77975,16.43864 -38.48529,32.12823 -59.80567,39.58259 -23.87028,8.34589 -54.43833,10.64854 -77.77867,5.85895 z"
     id="path12" />
  <path
     style="opacity:0.996774;fill:#1a1a1a;stroke:#ac0000;stroke-width:1.82458;stroke-opacity:0.0240964"
     d="m 159.90017,237.72712 c -13.68738,-3.92711 -22.31712,-15.43535 -22.31712,-29.76112 0,-10.48456 4.19917,-18.88581 12.41399,-24.8366 13.57574,-9.83421 30.13982,-7.55726 41.82281,5.74909 14.09996,16.05917 5.21477,43.12444 -16.10044,49.04372 -7.47671,2.07631 -7.92173,2.07082 -15.81924,-0.19509 z"
     id="path14" />
  <path
     style="opacity:0.996774;fill:#1a1a1a;stroke:#ac0000;stroke-width:1.82458;stroke-opacity:0.0240964"
     d="m 318.18752,237.18551 c -9.568,-3.35524 -19.21915,-14.56012 -20.62689,-23.94759 -1.54315,-10.29043 0.34859,-17.21714 6.66774,-24.41435 11.63481,-13.25148 28.22105,-15.5123 41.77458,-5.69417 8.21483,5.95079 12.414,14.35204 12.414,24.8366 0,14.72276 -8.60351,25.83721 -23.11052,29.85532 -8.42526,2.33361 -8.67787,2.32423 -17.11891,-0.63581 z"
     id="path16" />
</svg>
