<?xml version="1.0" encoding="UTF-8" standalone="no"?>
<svg
   xmlns:dc="http://purl.org/dc/elements/1.1/"
   xmlns:cc="http://creativecommons.org/ns#"
   xmlns:rdf="http://www.w3.org/1999/02/22-rdf-syntax-ns#"
   xmlns:svg="http://www.w3.org/2000/svg"
   xmlns="http://www.w3.org/2000/svg"
   xmlns:sodipodi="http://sodipodi.sourceforge.net/DTD/sodipodi-0.dtd"
   xmlns:inkscape="http://www.inkscape.org/namespaces/inkscape"
   viewBox="0 0 496 512"
   version="1.1"
   id="svg4"
   sodipodi:docname="smile.svg"
   inkscape:version="1.0.1 (3bc2e813f5, 2020-09-07)">
  <metadata
     id="metadata10">
    <rdf:RDF>
      <cc:Work
         rdf:about="">
        <dc:format>image/svg+xml</dc:format>
        <dc:type
           rdf:resource="http://purl.org/dc/dcmitype/StillImage" />
      </cc:Work>
    </rdf:RDF>
  </metadata>
  <defs
     id="defs8" />
  <sodipodi:namedview
     pagecolor="#ffffff"
     bordercolor="#666666"
     borderopacity="1"
     objecttolerance="10"
     gridtolerance="10"
     guidetolerance="10"
     inkscape:pageopacity="0"
     inkscape:pageshadow="2"
     inkscape:window-width="1366"
     inkscape:window-height="716"
     id="namedview6"
     showgrid="false"
     inkscape:zoom="1.0288567"
     inkscape:cx="248"
     inkscape:cy="294.8781"
     inkscape:window-x="-8"
     inkscape:window-y="22"
     inkscape:window-maximized="1"
     inkscape:current-layer="svg4" />
  <!-- Font Awesome Free 5.15.3 by @fontawesome - https://fontawesome.com License - https://fontawesome.com/license/free (Icons: CC BY 4.0, Fonts: SIL OFL 1.1, Code: MIT License) -->
  <path
     fill="#ffe18f"
     d="M248 8C111 8 0 119 0 256s111 248 248 248 248-111 248-248S385 8 248 8zm80 168c17.7 0 32 14.3 32 32s-14.3 32-32 32-32-14.3-32-32 14.3-32 32-32zm-160 0c17.7 0 32 14.3 32 32s-14.3 32-32 32-32-14.3-32-32 14.3-32 32-32zm194.8 170.2C334.3 380.4 292.5 400 248 400s-86.3-19.6-114.8-53.8c-13.6-16.3 11-36.7 24.6-20.5 22.4 26.9 55.2 42.2 90.2 42.2s67.8-15.4 90.2-42.2c13.4-16.2 38.1 4.2 24.6 20.5z"
     id="path2" />
  <path
     style="opacity:0.996774;fill:#4d4d4d;stroke:#ac0000;stroke-width:1.03593;stroke-opacity:0.0240964"
     d="m 233.00488,398.81389 c -9.49724,-0.98021 -24.81341,-4.42388 -34.62628,-7.78535 -14.87483,-5.09547 -35.14164,-16.92675 -47.70806,-27.85082 -9.64947,-8.38835 -19.13117,-19.38272 -20.41692,-23.67416 -2.92618,-9.76674 7.86731,-20.85649 18.37984,-18.88432 2.75438,0.51672 5.90226,2.9574 14.27295,11.06636 12.64941,12.25391 15.92579,14.85858 26.29046,20.90057 31.49606,18.36034 72.60121,20.55208 106.32712,5.66938 13.06391,-5.76489 24.28094,-13.6328 36.96408,-25.92754 6.29688,-6.10405 12.60964,-11.38961 14.02833,-11.74568 5.8009,-1.45593 13.79713,2.0761 17.15202,7.57627 3.1003,5.08278 3.39092,8.84979 1.05499,13.67515 -2.64617,5.46627 -17.38646,20.31854 -28.15471,28.3686 -16.86896,12.61078 -42.46724,23.58248 -63.29793,27.13019 -11.12098,1.89403 -29.65943,2.57605 -40.26589,1.48135 z"
     id="path14" />
  <path
     style="opacity:0.996774;fill:#4d4d4d;stroke:#ac0000;stroke-width:1.03593;stroke-opacity:0.0240964"
     d="m 158.89544,238.13589 c -8.70375,-2.84631 -16.25981,-9.62873 -19.97881,-17.93323 -3.07602,-6.86874 -2.90795,-17.45022 0.39043,-24.58037 3.41385,-7.37976 8.31826,-12.55987 15.0898,-15.93805 4.80973,-2.39948 6.78776,-2.81454 13.41705,-2.81539 5.84448,-7.4e-4 8.90429,0.51045 12.32015,2.05829 6.09825,2.76333 13.03942,9.33031 16.1875,15.31485 2.23419,4.24722 2.57693,6.06226 2.57693,13.64636 0,7.65431 -0.33292,9.38124 -2.66383,13.81783 -5.62383,10.70425 -15.0013,16.8774 -26.47685,17.4296 -4.02332,0.1936 -8.46227,-0.21501 -10.86237,-0.99989 z"
     id="path16" />
  <path
     style="opacity:0.996774;fill:#4d4d4d;stroke:#ac0000;stroke-width:1.03593;stroke-opacity:0.0240964"
     d="m 319.92449,238.62566 c -8.93144,-2.93896 -15.87643,-8.76785 -20.15915,-16.91948 -2.33091,-4.43659 -2.66383,-6.16352 -2.66383,-13.81783 0,-7.5841 0.34274,-9.39914 2.57693,-13.64636 3.14808,-5.98454 10.08925,-12.55152 16.1875,-15.31485 6.50242,-2.94647 18.36172,-2.87109 24.60187,0.15636 7.20646,3.49628 12.12585,8.361 15.60831,15.43488 6.17406,12.5413 3.5704,26.818 -6.60064,36.19333 -2.43359,2.2432 -6.46975,4.98528 -8.96924,6.09349 -4.90553,2.175 -16.41153,3.19271 -20.58175,1.82046 z"
     id="path18" />
</svg>
